<svg width="177" height="44" viewBox="0 0 177 44" fill="none" xmlns="http://www.w3.org/2000/svg">
<path d="M134.073 22C134.073 18.2765 135.065 14.6187 136.949 11.3942C138.832 8.16965 141.542 5.49214 144.805 3.63082C141.542 1.76746 137.841 0.786005 134.073 0.785157C130.305 0.784308 126.603 1.7641 123.34 3.62598C120.077 5.48787 117.367 8.16621 115.483 11.3916C113.6 14.6171 112.608 18.2758 112.609 22V43.2141H134.073C137.842 43.2201 141.545 42.2385 144.805 40.3692C141.542 38.5083 138.832 35.8309 136.948 32.6063C135.064 29.3817 134.073 25.7236 134.073 22ZM123.341 31.0095C121.538 31.0086 119.775 30.4791 118.276 29.488C116.776 28.4969 115.608 27.0888 114.919 25.4415C114.229 23.7943 114.049 21.982 114.402 20.2337C114.754 18.4854 115.623 16.8797 116.899 15.6195C118.174 14.3593 119.799 13.5012 121.569 13.1538C123.338 12.8064 125.171 12.9852 126.837 13.6676C128.504 14.35 129.928 15.5054 130.93 16.9877C131.932 18.4699 132.466 20.2126 132.466 21.9952C132.466 23.1794 132.23 24.352 131.772 25.446C131.313 26.5399 130.641 27.5339 129.793 28.371C128.946 29.2081 127.94 29.872 126.833 30.3247C125.726 30.7775 124.539 31.0102 123.341 31.0095ZM155.546 0.785963C151.778 0.783616 148.076 1.76499 144.815 3.63082C148.077 5.49212 150.787 8.16963 152.671 11.3941C154.555 14.6187 155.546 18.2765 155.546 22C155.546 25.7235 154.555 29.3814 152.671 32.6059C150.787 35.8304 148.077 38.5079 144.815 40.3692C148.077 42.2302 151.777 43.2097 155.544 43.2094C159.31 43.209 163.01 42.2287 166.272 40.3671C169.534 38.5055 172.243 35.8282 174.126 32.6041C176.009 29.38 177 25.7228 177 22V0.785963H155.546ZM166.278 31.0095C164.475 31.0086 162.712 30.4791 161.213 29.488C159.713 28.4969 158.545 27.0888 157.856 25.4415C157.166 23.7943 156.986 21.982 157.339 20.2337C157.691 18.4854 158.56 16.8797 159.836 15.6195C161.111 14.3593 162.736 13.5012 164.506 13.1538C166.275 12.8064 168.108 12.9852 169.774 13.6676C171.441 14.35 172.865 15.5054 173.867 16.9877C174.869 18.4699 175.403 20.2126 175.403 21.9952C175.403 23.1802 175.167 24.3536 174.708 25.4482C174.248 26.5428 173.575 27.5371 172.727 28.3744C171.879 29.2116 170.871 29.8753 169.763 30.3275C168.655 30.7797 167.467 31.0114 166.268 31.0095H166.278Z" fill="url(#paint0_linear_652_7054)"/>
<path d="M155.546 22.002C155.546 18.2774 154.553 14.6185 152.667 11.3938C150.782 8.16899 148.069 5.49217 144.804 3.63281C141.541 5.49412 138.832 8.17162 136.948 11.3961C135.064 14.6206 134.072 18.2785 134.072 22.002C134.072 25.7255 135.064 29.3834 136.948 32.6079C138.832 35.8324 141.541 38.5099 144.804 40.3712C148.07 38.5122 150.782 35.8355 152.668 32.6107C154.554 29.3858 155.546 25.7267 155.546 22.002ZM144.804 31.0115C142.385 31.0115 140.066 30.0618 138.355 28.3713C136.645 26.6808 135.684 24.388 135.684 21.9972C135.684 19.6065 136.645 17.3137 138.355 15.6232C140.066 13.9326 142.385 12.9829 144.804 12.9829C145.12 12.9829 145.43 12.9829 145.741 13.0261C147.986 13.2559 150.066 14.3002 151.578 15.9571C153.09 17.6141 153.926 19.7661 153.926 21.9972C153.926 24.2284 153.09 26.3804 151.578 28.0373C150.066 29.6942 147.986 30.7385 145.741 30.9683C145.43 31.0115 145.12 31.0115 144.804 31.0115Z" fill="white"/>
<path d="M105.551 30.5293H0.222656V31.009H105.551V30.5293Z" fill="#00AAAD"/>
<path d="M15.5418 12.7884L13.8672 11.4355L12.5664 12.9515L14.2216 14.3284L15.5418 12.7884Z" fill="white"/>
<path d="M37.9186 12.5109L36.3363 11.2012L35.084 12.674L36.6421 13.9789L37.9186 12.5109Z" fill="white"/>
<path d="M44.3155 18.0556C44.2978 17.3978 44.1631 16.7482 43.9175 16.1366C43.6232 15.3786 43.1996 14.676 42.6652 14.0594L41.0828 15.7145C41.4554 16.1807 41.7805 16.682 42.0536 17.2113C42.2416 17.5267 42.3653 17.8755 42.4176 18.2379C42.4162 18.3618 42.3743 18.482 42.2982 18.5806C42.2222 18.6791 42.1159 18.7507 41.9953 18.7848C41.6555 18.9091 41.2946 18.9677 40.9324 18.9575C40.6565 18.9922 40.3765 18.94 40.1325 18.8082C39.8884 18.6764 39.6927 18.4717 39.5733 18.2235C39.3162 17.4506 39.2076 16.6371 39.2529 15.8248L37.5056 16.247V17.0385C37.5558 17.5615 37.4126 18.0847 37.1027 18.5113C36.8357 18.8088 36.3164 18.9527 35.5446 18.9527C35.246 18.9644 34.9483 18.9137 34.6709 18.804C34.4397 18.6916 34.2534 18.5058 34.1418 18.2763C33.9921 17.9758 33.9 17.6505 33.87 17.3168C33.8163 16.8245 33.792 16.3295 33.7972 15.8344L32.0741 16.2566V17.5183C32.0895 17.7409 32.0441 17.9635 31.9424 18.1627C31.8408 18.3619 31.6868 18.5304 31.4965 18.6505C31.0874 18.8695 30.6267 18.9771 30.1617 18.9623H28.2978C27.9709 18.9795 27.6462 18.8992 27.3659 18.732C27.1181 18.548 26.9088 18.3183 26.7495 18.0556C26.5323 17.7084 26.3346 17.3497 26.1573 16.981C25.9088 16.4868 25.6333 16.0064 25.3321 15.5418C25.1298 15.2037 24.8548 14.9138 24.5264 14.6926C24.2102 14.491 23.8395 14.389 23.4634 14.4C23.118 14.4024 22.7807 14.5041 22.4927 14.6926C22.1519 14.8989 21.8443 15.1544 21.5801 15.4506C21.2771 15.805 21.0043 16.1837 20.7647 16.5828C20.5074 17.0098 20.2405 17.4655 19.9735 17.9453C19.8789 18.1437 19.7439 18.3207 19.5768 18.4652C19.4098 18.6097 19.2143 18.7185 19.0027 18.7848C18.5945 18.8941 18.1734 18.9489 17.7505 18.9479H17.2117C16.8592 18.96 16.5075 18.9096 16.173 18.7992C15.9092 18.7036 15.6899 18.5159 15.5565 18.2715C15.401 17.9726 15.3055 17.6468 15.275 17.312C15.2213 16.8197 15.197 16.3247 15.2022 15.8296L13.4791 16.2518V17.2113C13.45 17.9261 13.2655 18.401 12.9355 18.6505C12.4324 18.9257 11.8582 19.0475 11.2852 19.0007H10.3192C10.1032 19.0091 9.88811 18.9671 9.69158 18.8779C9.49506 18.7887 9.32262 18.6549 9.1883 18.4874C8.7844 17.9149 8.47326 17.2836 8.26607 16.6164L6.09641 10.9219L4.51406 12.553C4.74704 13.1143 4.99945 13.6852 5.23243 14.2609C5.46541 14.8365 5.71781 15.3691 5.88284 15.8584C6.04787 16.3477 6.22261 16.7795 6.36823 17.1537C6.46275 17.4167 6.52151 17.6909 6.54296 17.9692C6.54296 18.329 6.28571 18.6217 5.76635 18.8472C5.08756 19.0986 4.36463 19.2128 3.64037 19.183C3.14272 19.2022 2.64503 19.1455 2.16481 19.0151C1.75781 18.8886 1.3766 18.6921 1.03872 18.4346L0 20.2288C0.420484 20.7014 0.947577 21.0695 1.53866 21.3034C2.14696 21.5037 2.78586 21.5978 3.4268 21.5817C4.26564 21.6053 5.10166 21.4752 5.89255 21.1979C6.62069 20.888 7.21167 20.3295 7.55741 19.6243C7.72077 19.8998 7.90237 20.1642 8.10104 20.4159C8.26531 20.6171 8.46016 20.7919 8.67865 20.934C8.89255 21.0733 9.12892 21.1755 9.3776 21.2363C9.67185 21.3043 9.9734 21.3365 10.2756 21.3322H11.2463C11.8442 21.3508 12.4385 21.2343 12.984 20.9916C13.4657 20.752 13.8707 20.385 14.1538 19.9314C14.4055 20.3967 14.795 20.775 15.2702 21.0156C15.789 21.2428 16.3532 21.3511 16.9205 21.3322H17.7844C18.3198 21.345 18.8525 21.2538 19.3522 21.0636C19.8473 20.8351 20.2813 20.495 20.6191 20.0705C21.1678 20.5219 21.7854 20.8846 22.449 21.1451C23.0044 21.3851 23.6003 21.5202 24.2061 21.5433C24.389 21.5374 24.5689 21.4958 24.7356 21.4208C24.9022 21.3459 25.0521 21.2392 25.1768 21.1067C25.4969 20.7822 25.7173 20.3747 25.8127 19.9314C26.0901 20.3036 26.4166 20.6376 26.7834 20.9244C27.1438 21.1934 27.5842 21.3368 28.0357 21.3322H30.2297C30.7213 21.3348 31.2055 21.2143 31.6373 20.982C32.1006 20.7175 32.4869 20.3391 32.7585 19.8834C32.9804 20.364 33.3532 20.761 33.8215 21.0156C34.3411 21.2458 34.9076 21.3542 35.4767 21.3322C36.0621 21.3614 36.6445 21.232 37.1609 20.958C37.6125 20.6747 37.99 20.2901 38.2627 19.8354C38.719 20.8333 39.5927 21.3322 40.8838 21.3322C41.3474 21.3347 41.8077 21.2551 42.2429 21.0971C42.6555 20.9604 43.0354 20.7416 43.3593 20.4543C43.6695 20.1644 43.9114 19.8106 44.0679 19.4181C44.239 18.9841 44.3231 18.5213 44.3155 18.0556ZM24.4924 19.1974C24.385 19.2712 24.259 19.3143 24.1284 19.3221C23.7155 19.3048 23.3086 19.2188 22.9246 19.0678C22.4599 18.9012 22.028 18.6561 21.6481 18.3434C21.8613 17.8812 22.1355 17.4489 22.4635 17.0577C22.5554 16.9235 22.6762 16.8109 22.8171 16.728C22.958 16.6451 23.1157 16.5938 23.279 16.578C23.48 16.5829 23.6721 16.6616 23.8177 16.7987C24.0112 16.9566 24.1755 17.1465 24.3031 17.36C24.44 17.5895 24.5445 17.8365 24.6138 18.094C24.6801 18.3462 24.7144 18.6057 24.7157 18.8664C24.7143 18.9368 24.6926 19.0055 24.653 19.0641C24.6134 19.1228 24.5577 19.169 24.4924 19.1974Z" fill="white"/>
<path d="M39.0064 9.61434L37.5162 8.35742L36.3125 9.77745L37.822 11.0152L39.0064 9.61434Z" fill="white"/>
<path d="M39.5678 13.9789L40.8444 12.5109L39.2378 11.2012L38.0098 12.674L39.5678 13.9789Z" fill="white"/>
<path d="M62.4055 15.3084C61.7421 14.6518 61.028 14.0471 60.2698 13.4998C59.4252 12.8858 58.4545 12.2061 57.3575 11.4609L56.3867 13.3511L57.0711 13.7685C56.3886 14.0916 55.8154 14.6031 55.4208 15.2413C55.0696 15.777 54.8732 16.3975 54.8529 17.0355C54.853 17.3566 54.9278 17.6734 55.0714 17.9614C55.306 18.3585 55.6404 18.6889 56.0421 18.9209C55.7712 18.9491 55.4991 18.9635 55.2267 18.9641H51.829C51.7877 18.4055 51.6818 17.8534 51.5135 17.3186C51.3599 16.8257 51.1325 16.3583 50.8388 15.9321C50.5719 15.546 50.2264 15.2192 49.8244 14.9726C49.426 14.7313 48.9665 14.6065 48.4993 14.6128C48.0594 14.6109 47.63 14.7451 47.2712 14.9966C46.8816 15.2616 46.5511 15.6028 46.3005 15.9993C45.733 16.8902 45.4303 17.9209 45.4268 18.9737C45.4003 19.3214 45.4509 19.6706 45.575 19.9971C45.699 20.3235 45.8936 20.6193 46.1452 20.8638C46.6602 21.2986 47.3226 21.5248 47.9993 21.4971C48.2032 21.4971 48.4847 21.4971 48.873 21.4491C49.252 21.42 49.6256 21.3426 49.9845 21.2188C49.7894 21.5999 49.5411 21.9519 49.2468 22.2647C48.831 22.704 48.385 23.1143 47.912 23.4928C47.3877 23.9198 46.7907 24.3611 46.1306 24.8217C45.4705 25.2822 44.7327 25.7332 43.9609 26.2129L45.5676 27.6521C46.9651 26.8018 48.2739 25.8168 49.4749 24.7113C50.4911 23.7969 51.239 22.6285 51.6397 21.3292H55.0131C55.5844 21.3266 56.1544 21.2752 56.7168 21.1757C57.2909 21.0764 57.837 20.8573 58.3186 20.5328C58.571 20.6719 58.8719 20.8206 59.2165 20.979C59.5611 21.1373 59.9106 21.2764 60.2552 21.4107C60.5999 21.5451 60.9299 21.6506 61.226 21.7369C61.4746 21.8138 61.7326 21.8574 61.9929 21.8665C62.3333 21.8768 62.6698 21.792 62.9637 21.6218C63.2392 21.4567 63.4732 21.232 63.6481 20.9646C63.8328 20.6902 63.969 20.3869 64.0509 20.0675C64.1357 19.7544 64.1798 19.432 64.182 19.108C64.1887 18.4204 64.0342 17.7406 63.7306 17.1219C63.3895 16.4514 62.9422 15.8392 62.4055 15.3084ZM49.2468 19.2567C48.9412 19.299 48.6331 19.3214 48.3245 19.3239C47.9937 19.3465 47.6649 19.2568 47.3926 19.0696C47.2884 18.9852 47.2056 18.878 47.1508 18.7564C47.0961 18.6347 47.0708 18.5022 47.0771 18.3692C47.0813 17.9924 47.209 17.6271 47.4411 17.3281C47.5571 17.1855 47.6927 17.0595 47.844 16.954C47.9869 16.8571 48.1561 16.8053 48.3294 16.8052C48.5542 16.8051 48.7753 16.8619 48.9716 16.9702C49.1679 17.0786 49.3328 17.2348 49.4506 17.4241C49.7772 17.9285 49.9845 18.4991 50.0573 19.0936C49.7908 19.1643 49.5201 19.2188 49.2468 19.2567ZM59.003 17.8175C58.8286 18.0702 58.5818 18.2656 58.2943 18.3788C58.0697 18.2991 57.8522 18.2012 57.6439 18.0861C57.4374 17.976 57.2395 17.8509 57.0517 17.7119C56.8868 17.5941 56.7397 17.4535 56.6149 17.2946C56.5075 17.1572 56.4495 16.9884 56.4498 16.8148C56.4561 16.6044 56.518 16.3993 56.6294 16.2199C56.7524 16.0043 56.906 15.8072 57.0857 15.6347C57.2693 15.4598 57.4768 15.3113 57.7021 15.1933C57.8952 15.0812 58.1141 15.0201 58.338 15.0158C58.5904 15.0158 58.8234 15.1933 59.0127 15.5435C59.2249 15.9661 59.3267 16.4345 59.3087 16.906C59.3007 17.2333 59.1868 17.5494 58.9835 17.8079L59.003 17.8175ZM62.4006 19.6021C62.3637 19.6743 62.3076 19.7352 62.2384 19.7783C62.1691 19.8214 62.0893 19.845 62.0075 19.8468C61.8711 19.835 61.7371 19.8043 61.6095 19.7556L60.9833 19.5445C60.7552 19.4678 60.5271 19.3814 60.3086 19.2903C60.0902 19.1991 59.9058 19.108 59.765 19.0312C60.045 18.7713 60.2672 18.4567 60.4176 18.1073C60.568 17.758 60.6433 17.3815 60.6387 17.0019C60.652 16.7596 60.6373 16.5166 60.595 16.2775C61.2185 16.6764 61.7495 17.2012 62.1531 17.8175C62.383 18.1844 62.5195 18.6008 62.5511 19.0312C62.5401 19.2332 62.471 19.4279 62.3521 19.5925L62.4006 19.6021Z" fill="white"/>
<path d="M73.4481 15.8694C73.0896 15.3238 72.6658 14.8229 72.1861 14.3775C71.4894 13.738 70.7375 13.1601 69.9388 12.6504L68.7836 14.7277L69.2689 15.0299C69.002 15.5096 68.7836 15.903 68.5943 16.2532C68.4315 16.5652 68.2857 16.8854 68.1574 17.2127C68.0589 17.4874 67.9842 17.7698 67.9341 18.0571C67.8852 18.31 67.8608 18.5671 67.8613 18.8246C67.8609 19.1702 67.9166 19.5136 68.0264 19.8417C68.136 20.1554 68.3132 20.4418 68.5457 20.6812C68.7997 20.9325 69.1016 21.1315 69.434 21.2665C69.8361 21.4205 70.2648 21.4955 70.696 21.4872C71.2161 21.4982 71.7335 21.4102 72.2201 21.2281C72.6234 21.0784 72.9893 20.8444 73.2928 20.5421C73.5733 20.2583 73.7914 19.9202 73.9335 19.549C74.0745 19.168 74.1452 18.765 74.1422 18.3593C74.1395 17.9675 74.0972 17.577 74.016 17.1935C73.9056 16.723 73.7135 16.275 73.4481 15.8694ZM71.9143 19.0453C71.5947 19.2272 71.2294 19.3154 70.861 19.2996C70.4811 19.3321 70.1024 19.2244 69.798 18.9973C69.6938 18.9069 69.6105 18.7954 69.5536 18.6705C69.4966 18.5455 69.4674 18.41 69.468 18.2729C69.4904 17.8682 69.6031 17.4734 69.798 17.1168C70.0344 16.6524 70.3036 16.2051 70.6037 15.7783C71.1499 16.1238 71.6298 16.5624 72.0211 17.0736C72.2893 17.4451 72.4366 17.8886 72.4433 18.3449C72.3665 18.6378 72.1766 18.8893 71.9143 19.0453Z" fill="white"/>
<path d="M77.8739 4.94531L75.8887 5.8808V21.4004L77.8739 20.959V4.94531Z" fill="white"/>
<path d="M105.008 17.0586C104.665 16.3953 104.218 15.7898 103.683 15.2644C103.024 14.6039 102.309 13.999 101.548 13.4558C100.708 12.8417 99.7324 12.1605 98.6354 11.4121L97.6646 13.3023L98.349 13.7245C97.6663 14.04 97.0912 14.545 96.6939 15.1781C96.3418 15.7152 96.1454 16.3374 96.126 16.9771C96.1288 17.2974 96.2069 17.6128 96.3541 17.8982C96.5873 18.2963 96.922 18.6271 97.3249 18.8577C97.054 18.8871 96.7819 18.9032 96.5094 18.9056H95.7474C95.4197 18.9238 95.0943 18.8417 94.8154 18.6706C94.5619 18.4901 94.3487 18.2598 94.1893 17.9941C93.9729 17.6465 93.7753 17.2878 93.5971 16.9195C93.3486 16.4254 93.0732 15.9449 92.772 15.4803C92.5683 15.1391 92.2916 14.8461 91.9614 14.6216C91.6446 14.4213 91.2743 14.3194 90.8984 14.3289C90.5527 14.33 90.215 14.4318 89.9276 14.6216C89.5972 14.8378 89.3012 15.1014 89.0491 15.4035C88.744 15.7564 88.4711 16.1353 88.2336 16.5357C87.9715 16.9627 87.7094 17.4184 87.4425 17.8982C87.3482 18.0974 87.2133 18.2752 87.0462 18.4205C86.8792 18.5658 86.6836 18.6754 86.4717 18.7425C86.0631 18.8498 85.6422 18.9046 85.2194 18.9056H84.5787C84.3295 18.9085 84.0833 18.8525 83.8603 18.7425C83.6191 18.6083 83.4064 18.4291 83.2342 18.2148C82.9858 17.9118 82.7603 17.5911 82.5595 17.2553C82.3168 16.8571 82.0207 16.363 81.6761 15.7729L80.0695 17.3369C80.4719 17.9244 80.8304 18.5401 81.1422 19.1791C81.3785 19.6119 81.5191 20.0894 81.5548 20.5799C81.5252 20.9773 81.3821 21.3583 81.1422 21.6785C80.8025 22.1681 80.4067 22.6172 79.9627 23.017C79.3753 23.5548 78.7561 24.0579 78.1086 24.5234C77.3853 25.0511 76.5747 25.5836 75.6816 26.1113L77.2883 27.6513C78.1037 27.1236 78.8706 26.5911 79.5793 26.0537C80.2409 25.557 80.8595 25.0066 81.4286 24.4082C81.9339 23.8918 82.3739 23.3167 82.7391 22.6956C83.0602 22.1397 83.2602 21.5237 83.3264 20.887C83.5246 21.0487 83.7594 21.1606 84.0108 21.2132C84.2601 21.2623 84.5138 21.2864 84.768 21.2851H85.4281C85.9113 21.2832 86.39 21.1938 86.8406 21.0213C87.3275 20.7906 87.7518 20.4485 88.0783 20.0234C88.6278 20.4738 89.2452 20.8364 89.9082 21.098C90.4651 21.3386 91.0628 21.4737 91.6702 21.4962C91.8529 21.4917 92.0329 21.4512 92.1996 21.3771C92.3663 21.3029 92.5163 21.1966 92.6409 21.0645C92.9618 20.7386 93.1823 20.3293 93.2768 19.8843C93.5619 20.258 93.8966 20.592 94.2718 20.8774C94.6302 21.15 95.0719 21.2938 95.5241 21.2851H96.5385C97.0268 21.2717 97.5134 21.2236 97.9947 21.1412C98.57 21.0438 99.1177 20.8263 99.6013 20.5032C99.8537 20.6423 100.15 20.791 100.499 20.9445C100.849 21.098 101.189 21.242 101.538 21.3763C101.887 21.5106 102.208 21.6162 102.509 21.7025C102.757 21.7794 103.015 21.823 103.276 21.832C103.616 21.8411 103.952 21.7564 104.246 21.5874C104.518 21.4208 104.75 21.1982 104.926 20.9349C105.108 20.6573 105.244 20.3529 105.329 20.033C105.41 19.7194 105.452 19.3972 105.455 19.0735C105.465 18.3769 105.312 17.6874 105.008 17.0586ZM91.9031 19.1503C91.7953 19.2276 91.6672 19.2725 91.5342 19.2798C91.1209 19.2629 90.7136 19.1753 90.3305 19.0208C89.8663 18.8531 89.4345 18.6081 89.0539 18.2964C89.2669 17.8355 89.5412 17.4047 89.8694 17.0155C89.9625 16.8823 90.0835 16.7706 90.2242 16.6878C90.3649 16.605 90.522 16.5532 90.6848 16.5357C90.8869 16.5426 91.0798 16.6209 91.2285 16.7564C91.4205 16.9157 91.5846 17.1054 91.7138 17.3177C91.848 17.5497 91.9508 17.7981 92.0196 18.0565C92.0901 18.3064 92.126 18.5646 92.1264 18.8241C92.1249 18.8915 92.1051 18.9572 92.0693 19.0146C92.0335 19.0719 91.9828 19.1188 91.9226 19.1503H91.9031ZM100.242 17.7591C100.072 18.016 99.8241 18.2127 99.5334 18.3204C99.3079 18.2428 99.0902 18.1448 98.883 18.0277C98.6772 17.9165 98.4793 17.7914 98.2908 17.6535C98.1251 17.5382 97.9792 17.3973 97.8588 17.2361C97.75 17.0992 97.6903 16.9305 97.6889 16.7564C97.6975 16.5464 97.7593 16.3419 97.8685 16.1615C97.999 15.943 98.1627 15.7456 98.3539 15.5762C98.5367 15.4026 98.7425 15.2542 98.9655 15.1349C99.1615 15.0256 99.3813 14.9647 99.6062 14.9574C99.8586 14.9574 100.092 15.1349 100.276 15.4851C100.491 15.9084 100.593 16.3791 100.572 16.8524C100.57 17.1798 100.461 17.4979 100.261 17.7591H100.242ZM103.64 19.5437C103.604 19.6164 103.549 19.6781 103.481 19.7221C103.412 19.766 103.333 19.7906 103.251 19.7932C103.113 19.7791 102.978 19.7468 102.849 19.6972L102.232 19.4957C102.004 19.419 101.781 19.3326 101.562 19.2415C101.344 19.1503 101.159 19.0592 101.019 18.9824C101.296 18.7205 101.517 18.4055 101.667 18.0566C101.817 17.7077 101.894 17.3323 101.892 16.9531C101.906 16.7106 101.89 16.4673 101.844 16.2287C102.469 16.6261 103 17.1512 103.402 17.7687C103.633 18.1354 103.771 18.5517 103.805 18.9824C103.807 19.1802 103.753 19.3747 103.649 19.5437H103.64Z" fill="white"/>
<defs>
<linearGradient id="paint0_linear_652_7054" x1="112.609" y1="22" x2="177" y2="22" gradientUnits="userSpaceOnUse">
<stop stop-color="#00AAAD"/>
<stop offset="0.43" stop-color="#00A8B0"/>
<stop offset="0.69" stop-color="#009FB8"/>
<stop offset="0.91" stop-color="#0091C6"/>
<stop offset="1" stop-color="#0089CF"/>
</linearGradient>
</defs>
</svg>
