<svg width="64" height="44" viewBox="0 0 64 44" fill="none" xmlns="http://www.w3.org/2000/svg">
<g clip-path="url(#clip0_621_16034)">
<path d="M21.2173 22.1063C21.2173 18.3432 22.208 14.6464 24.0898 11.3875C25.9716 8.12866 28.6781 5.42264 31.9373 3.54149C28.6785 1.65829 24.9812 0.666385 21.2174 0.665528C17.4535 0.66467 13.7558 1.65489 10.4961 3.53661C7.23639 5.41832 4.52964 8.12519 2.64804 11.385C0.766442 14.6447 -0.22365 18.3425 -0.222656 22.1063V43.5463H21.2173C24.982 43.5524 28.681 42.5603 31.9373 40.6712C28.6778 38.7904 25.971 36.0845 24.0891 32.8255C22.2073 29.5666 21.2168 25.8696 21.2173 22.1063ZM10.4973 31.2118C8.6957 31.2108 6.93479 30.6757 5.43725 29.6741C3.93971 28.6724 2.77276 27.2493 2.08397 25.5845C1.39518 23.9197 1.21546 22.0881 1.56753 20.3212C1.9196 18.5543 2.78765 16.9314 4.06194 15.6578C5.33623 14.3842 6.95954 13.517 8.72664 13.1659C10.4937 12.8148 12.3253 12.9955 13.9897 13.6851C15.6541 14.3748 17.0766 15.5425 18.0775 17.0406C19.0783 18.5387 19.6125 20.2999 19.6125 22.1015C19.6125 23.2983 19.3767 24.4833 18.9185 25.589C18.4604 26.6946 17.7889 27.6991 16.9424 28.5452C16.0959 29.3912 15.0911 30.0622 13.9852 30.5197C12.8793 30.9773 11.6941 31.2124 10.4973 31.2118ZM42.667 0.666343C38.9029 0.663971 35.2048 1.6558 31.947 3.54149C35.2063 5.42262 37.9129 8.12864 39.7947 11.3875C41.6765 14.6464 42.6671 18.3432 42.6671 22.1063C42.6671 25.8695 41.6765 29.5663 39.7947 32.8252C37.9129 36.084 35.2063 38.7901 31.947 40.6712C35.2056 42.552 38.9019 43.5419 42.6643 43.5416C46.4267 43.5412 50.1228 42.5505 53.381 40.6691C56.6392 38.7876 59.3448 36.0818 61.2259 32.8233C63.107 29.5649 64.0974 25.8688 64.0973 22.1063V0.666343H42.667ZM53.387 31.2118C51.5854 31.2108 49.8245 30.6757 48.3269 29.6741C46.8294 28.6724 45.6625 27.2493 44.9737 25.5845C44.2849 23.9197 44.1052 22.0881 44.4572 20.3212C44.8093 18.5543 45.6774 16.9314 46.9516 15.6578C48.2259 14.3842 49.8492 13.517 51.6163 13.1659C53.3834 12.8148 55.215 12.9955 56.8794 13.6851C58.5438 14.3748 59.9663 15.5425 60.9672 17.0406C61.968 18.5387 62.5022 20.2999 62.5022 22.1015C62.5022 23.2991 62.2661 24.485 61.8073 25.5912C61.3486 26.6975 60.6762 27.7024 59.8287 28.5486C58.9812 29.3948 57.9752 30.0655 56.8682 30.5225C55.7612 30.9795 54.5749 31.2137 53.3773 31.2118H53.387Z" fill="url(#paint0_linear_621_16034)"/>
<path d="M42.6666 22.1064C42.6666 18.3421 41.6749 14.6442 39.7913 11.3851C37.9076 8.12599 35.1986 5.42067 31.9369 3.5415C28.6777 5.42263 25.9711 8.12865 24.0893 11.3875C22.2075 14.6464 21.2168 18.3432 21.2168 22.1064C21.2168 25.8695 22.2075 29.5663 24.0893 32.8252C25.9711 36.084 28.6777 38.7901 31.9369 40.6712C35.1989 38.7924 37.9082 36.0872 39.7919 32.828C41.6756 29.5688 42.6671 25.8707 42.6666 22.1064ZM31.9369 31.2118C29.5207 31.2118 27.2035 30.252 25.495 28.5435C23.7864 26.8349 22.8266 24.5177 22.8266 22.1015C22.8266 19.6853 23.7864 17.3681 25.495 15.6595C27.2035 13.951 29.5207 12.9912 31.9369 12.9912C32.2521 12.9912 32.5624 12.9912 32.8727 13.0348C35.1156 13.2671 37.1928 14.3225 38.703 15.9971C40.2131 17.6717 41.0489 19.8466 41.0489 22.1015C41.0489 24.3564 40.2131 26.5313 38.703 28.2059C37.1928 29.8805 35.1156 30.9359 32.8727 31.1682C32.5624 31.2118 32.2521 31.2118 31.9369 31.2118Z" fill="white"/>
</g>
<defs>
<linearGradient id="paint0_linear_621_16034" x1="-0.222656" y1="22.1063" x2="64.0973" y2="22.1063" gradientUnits="userSpaceOnUse">
<stop stop-color="#00AAAD"/>
<stop offset="0.43" stop-color="#00A8B0"/>
<stop offset="0.69" stop-color="#009FB8"/>
<stop offset="0.91" stop-color="#0091C6"/>
<stop offset="1" stop-color="#0089CF"/>
</linearGradient>
<clipPath id="clip0_621_16034">
<rect width="64" height="42.6667" fill="white" transform="translate(0 0.666504)"/>
</clipPath>
</defs>
</svg>
