      <svg
        width="63"
        height="90"
        viewBox="0 0 63 90"
        fill="none"
        xmlns="http://www.w3.org/2000/svg"
      >
        <path
          d="M17.0176 5.5C11.3265 13.3333 -4.98242 36.5 10.0176 50.5"
          stroke="#333539"
          strokeWidth="2"
        />
        <path
          fillRule="evenodd"
          clipRule="evenodd"
          d="M31.3261 40.7467C31.965 40.7733 32.5787 41.0034 33.0777 41.4034L60.6312 63.4907C61.9351 64.536 62.1335 66.4451 61.0724 67.7362L45.5694 86.598C44.5264 87.8669 42.6568 88.0612 41.3752 87.0338L13.7964 64.9262C13.2779 64.5106 12.9121 63.9346 12.7564 63.2886L8.72001 46.5457C8.4994 45.6306 8.72111 44.665 9.31882 43.9378L11.6343 41.1206C12.232 40.3934 13.1364 39.9889 14.0769 40.0281L31.3261 40.7467ZM13.7103 49.4817C15.1261 50.6452 17.217 50.4408 18.3806 49.0251C19.5442 47.6094 19.3398 45.5185 17.924 44.355C16.5083 43.1914 14.4173 43.3959 13.2537 44.8116C12.0901 46.2273 12.2945 48.3181 13.7103 49.4817Z"
          fill="#FFCB05"
        />
        <path
          opacity="0.9"
          d="M27.635 60.0667C27.6191 60.0541 27.5771 60.0156 27.509 59.9513C27.4416 59.8926 27.3617 59.8138 27.2693 59.7147C27.1802 59.6181 27.0843 59.5007 26.9816 59.3623C26.8821 59.2265 26.7912 59.0767 26.7087 58.913C26.4931 58.4728 26.4034 58.0341 26.4395 57.5966C26.4781 57.156 26.6486 56.7449 26.9511 56.3633C27.4553 55.7273 28.2599 55.2906 29.3647 55.053C29.4521 55.0343 29.524 55.0187 29.5803 55.0064C29.6399 54.9967 29.6937 54.9876 29.7418 54.9791C29.7899 54.9707 29.834 54.9641 29.8739 54.9595C29.9195 54.9542 29.9708 54.9483 30.0278 54.9417C30.0148 54.8797 30.0006 54.8192 29.9852 54.7603C29.9729 54.704 29.9641 54.653 29.9588 54.6074L29.9334 54.463L31.8016 54.0564C31.868 54.3058 31.9321 54.6233 31.994 55.009C32.0585 55.3915 32.1125 55.8589 32.1562 56.4114C32.2362 58.0023 31.9863 59.1635 31.4064 59.8949C31.109 60.2701 30.7549 60.5306 30.3442 60.6763C29.9368 60.8245 29.5085 60.8552 29.0594 60.7685C28.9052 60.7343 28.7567 60.6865 28.6138 60.6251C28.4716 60.5693 28.3389 60.5081 28.2156 60.4415C28.0924 60.3748 27.9805 60.3069 27.8801 60.2376C27.7803 60.1741 27.6986 60.1171 27.635 60.0667ZM30.0994 58.8588C30.1776 58.7603 30.234 58.6238 30.2687 58.4493C30.3034 58.2749 30.3213 58.0793 30.3222 57.8626C30.3288 57.6452 30.3228 57.4177 30.3039 57.1801C30.2877 56.9394 30.2663 56.705 30.24 56.4769C30.0785 56.5043 29.9021 56.5406 29.7109 56.5858C29.5223 56.6278 29.3352 56.6841 29.1499 56.7546C28.9645 56.8252 28.7896 56.9118 28.6253 57.0146C28.4635 57.1142 28.3316 57.2349 28.2295 57.3766C28.1722 57.4555 28.1559 57.5513 28.1804 57.6639C28.205 57.7766 28.2512 57.8883 28.3188 57.9989C28.3897 58.112 28.4716 58.221 28.5646 58.3258C28.6601 58.4274 28.746 58.5084 28.8224 58.5689C28.9178 58.6445 29.0246 58.7188 29.1428 58.7918C29.2667 58.8642 29.387 58.9181 29.5038 58.9537C29.6237 58.9918 29.7366 59.0062 29.8424 58.9969C29.9482 58.9875 30.0339 58.9415 30.0994 58.8588ZM34.1405 65.2234C34.0706 65.1679 33.9758 65.085 33.8561 64.9747C33.7365 64.8643 33.6275 64.7209 33.5291 64.5445C33.1465 64.8834 32.7183 65.1524 32.2445 65.3516C31.7714 65.5566 31.271 65.7011 30.7435 65.7852C30.2134 65.8725 29.6637 65.9028 29.0945 65.8762C28.5253 65.8496 27.9536 65.777 27.3795 65.6586L27.4633 63.7598C27.7798 63.8243 28.1067 63.8789 28.4441 63.9237C28.779 63.9716 29.1102 64.0012 29.4379 64.0124C29.7663 64.0293 30.0851 64.0257 30.3942 64.0015C30.7041 63.983 30.9951 63.9392 31.2673 63.8702C31.5395 63.8012 31.7869 63.7047 32.0094 63.5808C32.2295 63.46 32.4138 63.3058 32.5626 63.1182C32.5701 63.1087 32.5799 63.0931 32.5918 63.0715C32.6069 63.0524 32.6221 63.0333 32.6372 63.0142C32.6523 62.9952 32.6621 62.9796 32.6665 62.9675C32.674 62.958 32.6728 62.9596 32.6627 62.9723L32.6589 62.9771C32.7829 62.775 32.891 62.5733 32.9832 62.372C33.0755 62.1707 33.1592 61.9574 33.2342 61.7321C33.3124 61.5093 33.3858 61.2697 33.4544 61.0134C33.5255 60.7538 33.6009 60.4693 33.6807 60.1597L35.5357 60.6514C35.3604 61.1338 35.2275 61.5463 35.1372 61.889C35.0468 62.2316 34.9936 62.5208 34.9775 62.7566C34.9646 62.995 34.987 63.1888 35.0448 63.3381C35.105 63.4842 35.1955 63.6052 35.3164 63.701L35.3402 63.7199C35.4451 63.8031 35.5273 63.9019 35.5868 64.0163C35.6462 64.1308 35.6816 64.2494 35.693 64.3723C35.71 64.4946 35.701 64.6169 35.6661 64.7394C35.6343 64.8644 35.5781 64.9777 35.4974 65.0795C35.4142 65.1844 35.3154 65.2666 35.201 65.3261C35.0897 65.3881 34.9726 65.4247 34.8497 65.436C34.73 65.4499 34.6089 65.4393 34.4864 65.4044C34.3639 65.3694 34.2486 65.3091 34.1405 65.2234ZM37.9935 59.8733L36.3478 60.0679L36.1599 58.4432L34.5523 58.6291L34.3567 56.9749L36.0023 56.7803L36.1902 58.405L37.7979 58.2191L37.9935 59.8733ZM36.4188 56.3726L37.941 56.1966L38.1179 57.7272L36.5958 57.9032L36.4188 56.3726ZM36.505 69.6531L34.8593 69.8477L34.6714 68.223L33.0638 68.4089L32.8682 66.7547L34.5138 66.5601L34.7017 68.1848L36.3094 67.9989L36.505 69.6531ZM33.7338 63.6738C33.817 63.5688 33.9158 63.4866 34.0303 63.4272C34.1415 63.3652 34.257 63.3273 34.3767 63.3135C34.499 63.2964 34.6213 63.3054 34.7438 63.3403C34.8663 63.3753 34.98 63.4343 35.0849 63.5175L35.6144 63.9372L35.8434 64.1187C35.9865 64.2322 36.1489 64.3506 36.3307 64.474C36.5126 64.5974 36.6943 64.7078 36.876 64.8052C37.0577 64.9026 37.231 64.9779 37.3961 65.031C37.5668 65.0835 37.7126 65.0955 37.8335 65.0671C37.9114 65.0408 37.9868 64.9815 38.0599 64.8893C38.1683 64.7525 38.2635 64.5639 38.3455 64.3233C38.4306 64.0853 38.5055 63.834 38.5703 63.5695C38.635 63.3049 38.6903 63.0458 38.736 62.7921C38.785 62.5409 38.8275 62.3338 38.8635 62.1708L40.7524 62.5806C40.7148 62.8305 40.6489 63.1096 40.5546 63.418C40.4628 63.7232 40.3551 64.0289 40.2316 64.3349C40.1106 64.6377 39.9779 64.926 39.8333 65.1998C39.6913 65.4704 39.551 65.6932 39.4123 65.8681C39.1577 66.1893 38.8673 66.438 38.541 66.6144C38.1705 66.8074 37.791 66.9105 37.4026 66.9237C37.0167 66.9336 36.625 66.8562 36.2275 66.6913C36.1119 66.6411 35.9763 66.5672 35.8206 66.4697C35.6649 66.3722 35.5114 66.2686 35.36 66.159C35.2062 66.0526 35.0641 65.9477 34.9337 65.8443C34.8008 65.7442 34.6978 65.6651 34.6246 65.6071L33.9329 65.0589L33.89 65.0248C33.7851 64.9416 33.7016 64.8444 33.6396 64.7332C33.5777 64.6219 33.541 64.5048 33.5297 64.3819C33.5159 64.2622 33.5264 64.1411 33.5614 64.0187C33.5931 63.8937 33.6506 63.7787 33.7338 63.6738ZM42.8716 67.0955C42.8149 67.0298 42.7196 66.9932 42.5859 66.9855C42.4578 66.9772 42.3153 66.9937 42.1583 67.035C42.007 67.0756 41.858 67.1361 41.7114 67.2166C41.5679 67.2997 41.452 67.3968 41.3638 67.5081C41.2806 67.6131 41.2415 67.7245 41.2464 67.8423C41.2514 67.9602 41.2823 68.0779 41.3393 68.1955C41.3994 68.3157 41.4763 68.431 41.5699 68.5415C41.6667 68.6545 41.7639 68.7573 41.8612 68.8501L41.8565 68.8463C41.9341 68.9182 42.0241 68.9973 42.1266 69.0837C42.2347 69.1694 42.3396 69.2526 42.4414 69.3332C42.4732 69.3585 42.4958 69.3789 42.5092 69.3947C42.5282 69.4099 42.5441 69.4225 42.5569 69.4325C42.5696 69.4426 42.5823 69.4527 42.595 69.4628C42.6109 69.4754 42.6344 69.4914 42.6656 69.511C42.7742 69.276 42.8657 69.043 42.9401 68.812C43.0202 68.5803 43.074 68.3589 43.1016 68.1477C43.1291 67.9366 43.1254 67.742 43.0904 67.5641C43.0579 67.383 42.985 67.2268 42.8716 67.0955ZM36.5751 70.2369C37.0941 70.5032 37.5922 70.7143 38.0695 70.8699C38.5443 71.0288 38.9868 71.1336 39.3971 71.1844C39.808 71.2408 40.1785 71.2471 40.5085 71.2032C40.8417 71.1618 41.1233 71.0743 41.3534 70.9408C41.2167 70.8324 41.0745 70.7146 40.9269 70.5872C40.7768 70.463 40.6549 70.3587 40.5614 70.2742C40.2177 69.95 39.9462 69.6001 39.7467 69.2245C39.5448 68.8522 39.4427 68.4813 39.4404 68.1118C39.443 67.8342 39.4951 67.5726 39.5966 67.3269C39.7014 67.0837 39.842 66.8508 40.0185 66.6282C40.1546 66.4565 40.3066 66.2973 40.4746 66.1508C40.645 66.0011 40.8231 65.8679 41.009 65.7511C41.1973 65.6311 41.3876 65.5282 41.5799 65.4424C41.7753 65.3592 41.9655 65.2924 42.1503 65.2422C42.5302 65.1549 42.8809 65.1404 43.2025 65.1985C43.5298 65.256 43.819 65.3843 44.0703 65.5834C44.6077 66.0094 44.9061 66.6292 44.9655 67.4426C44.982 67.7353 44.9663 68.0361 44.9182 68.345C44.8701 68.6538 44.7917 68.9618 44.6827 69.269C44.5795 69.5756 44.4456 69.8785 44.2809 70.1777C44.1187 70.4738 43.9304 70.7569 43.7162 71.0272C43.6506 71.1099 43.5819 71.1901 43.51 71.2677C43.4413 71.3479 43.3747 71.422 43.3104 71.4901C42.9773 71.8319 42.617 72.1133 42.2295 72.3343C41.8426 72.561 41.439 72.7304 41.0187 72.8426C40.599 72.9604 40.1674 73.0248 39.7238 73.0356C39.2777 73.0497 38.8304 73.0162 38.382 72.9352C37.9342 72.8599 37.49 72.7408 37.0495 72.578C36.6089 72.4152 36.1815 72.2162 35.7672 71.981L36.5751 70.2369Z"
          fill="#191A1C"
        />
        <path
          d="M17.0176 5C22.5176 12.8333 21.5176 46.5 13.5176 50"
          stroke="#333539"
          strokeWidth="2"
        />
        <circle cx="17.0176" cy="6" r="5.5" fill="#333539" stroke="#333539" />
      </svg>