  <svg
    width="37"
    height="54"
    viewBox="0 0 37 54"
    fill="none"
    xmlns="http://www.w3.org/2000/svg"
  >
    <path
      d="M11.501 2C7.18253 6.87407 -5.19272 21.2889 6.18935 30"
      stroke="#333539"
      strokeWidth="2"
    />
    <path
      fillRule="evenodd"
      clipRule="evenodd"
      d="M17.6566 25.711C18.2955 25.7376 18.9092 25.9677 19.4082 26.3676L34.128 38.1673C35.4319 39.2125 35.6303 41.1217 34.5692 42.4127L27.1422 51.4489C26.0992 52.7179 24.2296 52.9122 22.9479 51.8848L8.20278 40.0649C7.6843 39.6492 7.31849 39.0732 7.16276 38.4273L5.06117 29.7098C4.84056 28.7947 5.06227 27.8292 5.65998 27.102L6.21347 26.4286C6.81118 25.7013 7.71557 25.2968 8.6561 25.336L17.6566 25.711ZM7.81824 30.8105C8.642 31.4875 9.85862 31.3685 10.5357 30.5448C11.2127 29.7211 11.0937 28.5046 10.27 27.8276C9.44622 27.1506 8.22959 27.2695 7.55257 28.0932C6.87554 28.9169 6.99448 30.1335 7.81824 30.8105Z"
      fill="#FFCB05"
    />
    <path
      opacity="0.9"
      d="M14.6171 36.1048C14.6057 36.0957 14.5757 36.0683 14.5271 36.0223C14.4789 35.9804 14.4218 35.9241 14.3559 35.8533C14.2922 35.7844 14.2237 35.7005 14.1504 35.6017C14.0793 35.5046 14.0143 35.3977 13.9554 35.2807C13.8014 34.9663 13.7373 34.6529 13.7631 34.3404C13.7907 34.0257 13.9125 33.7321 14.1286 33.4595C14.4887 33.0052 15.0634 32.6932 15.8526 32.5236C15.915 32.5102 15.9663 32.4991 16.0066 32.4903C16.0491 32.4833 16.0875 32.4768 16.1219 32.4708C16.1563 32.4647 16.1877 32.4601 16.2162 32.4568C16.2488 32.453 16.2855 32.4488 16.3262 32.4441C16.3169 32.3997 16.3068 32.3566 16.2957 32.3145C16.287 32.2743 16.2807 32.2379 16.2769 32.2053L16.2588 32.1021L17.5932 31.8117C17.6406 31.9898 17.6864 32.2166 17.7307 32.4921C17.7767 32.7653 17.8153 33.0992 17.8465 33.4938C17.9036 34.6302 17.7251 35.4596 17.3109 35.982C17.0985 36.2501 16.8456 36.4361 16.5522 36.5402C16.2612 36.646 15.9552 36.668 15.6345 36.6061C15.5243 36.5817 15.4183 36.5475 15.3162 36.5036C15.2146 36.4638 15.1198 36.4201 15.0318 36.3725C14.9438 36.3249 14.8639 36.2763 14.7921 36.2269C14.7208 36.1815 14.6625 36.1408 14.6171 36.1048ZM16.3774 35.242C16.4332 35.1716 16.4735 35.0741 16.4983 34.9495C16.5231 34.8249 16.5358 34.6852 16.5365 34.5304C16.5412 34.3751 16.5369 34.2126 16.5234 34.0429C16.5118 33.871 16.4966 33.7035 16.4777 33.5407C16.3624 33.5602 16.2364 33.5861 16.0999 33.6184C15.9651 33.6484 15.8315 33.6886 15.6991 33.739C15.5667 33.7894 15.4418 33.8513 15.3244 33.9247C15.2088 33.9958 15.1146 34.082 15.0417 34.1833C15.0008 34.2396 14.9891 34.308 15.0067 34.3885C15.0242 34.469 15.0572 34.5488 15.1055 34.6278C15.1561 34.7086 15.2146 34.7864 15.2811 34.8612C15.3493 34.9338 15.4106 34.9917 15.4652 35.0349C15.5333 35.0889 15.6096 35.142 15.694 35.1941C15.7825 35.2458 15.8685 35.2844 15.9519 35.3098C16.0376 35.337 16.1182 35.3473 16.1938 35.3406C16.2693 35.3339 16.3305 35.3011 16.3774 35.242ZM19.2639 39.7881C19.2139 39.7485 19.1462 39.6893 19.0607 39.6105C18.9753 39.5316 18.8974 39.4292 18.8271 39.3032C18.5539 39.5453 18.248 39.7374 17.9096 39.8797C17.5716 40.0261 17.2142 40.1293 16.8374 40.1894C16.4588 40.2517 16.0662 40.2734 15.6595 40.2544C15.2529 40.2354 14.8446 40.1836 14.4345 40.099L14.4944 38.7427C14.7205 38.7888 14.954 38.8278 15.195 38.8598C15.4342 38.894 15.6708 38.9151 15.9049 38.9231C16.1394 38.9352 16.3671 38.9326 16.5879 38.9153C16.8093 38.9021 17.0171 38.8709 17.2116 38.8216C17.406 38.7723 17.5827 38.7033 17.7417 38.6148C17.8988 38.5286 18.0305 38.4184 18.1367 38.2844C18.1421 38.2776 18.1491 38.2665 18.1576 38.251C18.1684 38.2374 18.1792 38.2238 18.1901 38.2102C18.2009 38.1965 18.2078 38.1854 18.211 38.1768C18.2164 38.17 18.2155 38.1711 18.2083 38.1802L18.2056 38.1836C18.2941 38.0393 18.3713 37.8952 18.4372 37.7514C18.5031 37.6076 18.5629 37.4553 18.6165 37.2943C18.6724 37.1352 18.7248 36.9641 18.7738 36.781C18.8246 36.5956 18.8784 36.3923 18.9354 36.1712L20.2604 36.5224C20.1352 36.867 20.0403 37.1617 19.9757 37.4064C19.9112 37.6511 19.8732 37.8577 19.8617 38.0262C19.8525 38.1964 19.8685 38.3348 19.9097 38.4415C19.9528 38.5459 20.0174 38.6323 20.1037 38.7007L20.1208 38.7142C20.1957 38.7736 20.2544 38.8442 20.2969 38.9259C20.3394 39.0077 20.3646 39.0924 20.3727 39.1802C20.3849 39.2675 20.3785 39.3549 20.3535 39.4424C20.3308 39.5317 20.2907 39.6127 20.2331 39.6853C20.1736 39.7603 20.1031 39.819 20.0213 39.8615C19.9418 39.9057 19.8582 39.9319 19.7704 39.94C19.6849 39.9499 19.5984 39.9424 19.5109 39.9174C19.4234 39.8924 19.3411 39.8493 19.2639 39.7881ZM22.016 35.9666L20.8405 36.1056L20.7063 34.9451L19.5579 35.0779L19.4182 33.8964L20.5937 33.7574L20.7279 34.9179L21.8762 34.7851L22.016 35.9666ZM20.8912 33.4661L21.9785 33.3404L22.1049 34.4337L21.0176 34.5594L20.8912 33.4661ZM20.9527 42.9522L19.7773 43.0912L19.6431 41.9307L18.4947 42.0635L18.355 40.882L19.5305 40.7429L19.6647 41.9034L20.813 41.7707L20.9527 42.9522ZM18.9733 38.6812C19.0328 38.6063 19.1033 38.5476 19.1851 38.5051C19.2646 38.4609 19.3471 38.4338 19.4326 38.4239C19.5199 38.4117 19.6073 38.4181 19.6948 38.4431C19.7823 38.468 19.8635 38.5102 19.9384 38.5697L20.3166 38.8694L20.4802 38.9991C20.5824 39.0801 20.6984 39.1647 20.8283 39.2528C20.9582 39.341 21.088 39.4198 21.2178 39.4894C21.3475 39.559 21.4714 39.6128 21.5892 39.6507C21.7112 39.6882 21.8153 39.6968 21.9017 39.6765C21.9573 39.6577 22.0112 39.6153 22.0634 39.5495C22.1409 39.4518 22.2088 39.3171 22.2674 39.1452C22.3282 38.9752 22.3817 38.7957 22.428 38.6067C22.4742 38.4178 22.5137 38.2327 22.5464 38.0515C22.5813 37.8721 22.6117 37.7241 22.6374 37.6077L23.9866 37.9004C23.9598 38.0789 23.9127 38.2783 23.8453 38.4986C23.7797 38.7166 23.7028 38.9349 23.6146 39.1535C23.5282 39.3698 23.4334 39.5757 23.3302 39.7713C23.2287 39.9646 23.1285 40.1237 23.0294 40.2486C22.8476 40.478 22.6401 40.6557 22.4071 40.7817C22.1424 40.9196 21.8714 40.9932 21.5939 41.0026C21.3182 41.0097 21.0385 40.9544 20.7545 40.8366C20.672 40.8008 20.5751 40.748 20.4639 40.6783C20.3527 40.6087 20.243 40.5347 20.1349 40.4564C20.025 40.3804 19.9235 40.3055 19.8304 40.2317C19.7355 40.1601 19.6619 40.1036 19.6096 40.0622L19.1156 39.6706L19.0849 39.6463C19.01 39.5869 18.9503 39.5174 18.9061 39.438C18.8618 39.3585 18.8356 39.2749 18.8276 39.1871C18.8177 39.1016 18.8252 39.0151 18.8502 38.9276C18.8729 38.8383 18.9139 38.7562 18.9733 38.6812ZM25.5003 41.1253C25.4598 41.0784 25.3918 41.0523 25.2963 41.0468C25.2048 41.0409 25.103 41.0526 24.9908 41.0821C24.8828 41.1111 24.7764 41.1544 24.6716 41.2119C24.5691 41.2712 24.4863 41.3406 24.4233 41.4201C24.3639 41.495 24.336 41.5746 24.3395 41.6588C24.343 41.743 24.3651 41.8271 24.4058 41.9111C24.4487 41.9969 24.5037 42.0793 24.5706 42.1582C24.6397 42.2389 24.7091 42.3124 24.7786 42.3786L24.7752 42.3759C24.8307 42.4273 24.895 42.4838 24.9682 42.5455C25.0454 42.6067 25.1204 42.6661 25.193 42.7237C25.2158 42.7417 25.2319 42.7564 25.2415 42.7677C25.2551 42.7785 25.2664 42.7875 25.2755 42.7947C25.2846 42.8019 25.2937 42.8091 25.3028 42.8163C25.3141 42.8253 25.3309 42.8367 25.3532 42.8507C25.4308 42.6828 25.4961 42.5164 25.5492 42.3514C25.6064 42.1859 25.6449 42.0278 25.6646 41.8769C25.6843 41.7261 25.6816 41.5872 25.6566 41.4601C25.6334 41.3307 25.5813 41.2191 25.5003 41.1253ZM21.0028 43.3692C21.3735 43.5594 21.7294 43.7102 22.0703 43.8214C22.4094 43.9348 22.7255 44.0097 23.0185 44.046C23.3121 44.0863 23.5767 44.0908 23.8124 44.0594C24.0504 44.0298 24.2515 43.9674 24.4159 43.872C24.3182 43.7946 24.2167 43.7104 24.1112 43.6194C24.004 43.5307 23.917 43.4562 23.8502 43.3958C23.6047 43.1643 23.4107 42.9143 23.2683 42.6461C23.1241 42.3801 23.0511 42.1152 23.0495 41.8513C23.0513 41.653 23.0885 41.4661 23.1611 41.2906C23.2359 41.1169 23.3363 40.9505 23.4624 40.7915C23.5596 40.6689 23.6682 40.5552 23.7882 40.4506C23.9099 40.3437 24.0372 40.2485 24.1699 40.1651C24.3044 40.0794 24.4403 40.0059 24.5777 39.9446C24.7173 39.8851 24.8531 39.8374 24.9851 39.8015C25.2565 39.7392 25.507 39.7288 25.7367 39.7703C25.9705 39.8114 26.1771 39.903 26.3565 40.0453C26.7404 40.3496 26.9536 40.7922 26.996 41.3733C27.0078 41.5824 26.9965 41.7972 26.9622 42.0178C26.9279 42.2384 26.8718 42.4584 26.794 42.6779C26.7203 42.8968 26.6246 43.1132 26.507 43.3269C26.3911 43.5384 26.2566 43.7407 26.1036 43.9337C26.0568 43.9928 26.0077 44.05 25.9563 44.1055C25.9072 44.1628 25.8597 44.2157 25.8138 44.2643C25.5758 44.5085 25.3185 44.7095 25.0417 44.8674C24.7653 45.0293 24.4771 45.1503 24.1768 45.2304C23.8771 45.3146 23.5688 45.3606 23.2519 45.3683C22.9333 45.3783 22.6138 45.3544 22.2935 45.2965C21.9736 45.2427 21.6564 45.1577 21.3417 45.0414C21.027 44.9251 20.7217 44.783 20.4258 44.615L21.0028 43.3692Z"
      fill="#191A1C"
    />
    <path
      d="M10.0167 2C13.9716 6.87407 13.2526 27.8222 7.5 30"
      stroke="#333539"
      strokeWidth="2"
    />
    <circle cx="11.5" cy="4" r="3.5" fill="#333539" stroke="#333539" />
  </svg>